PathFileType	4	(X/Y/Z)	C:\Users\Basilio\Documents\Thesis Gigler\squatting_fais\c3dfiles\073\SLS_front_pre5\markers_experimental.trc
DataRate	CameraRate	NumFrames	NumMarkers	Units	OrigDataRate	OrigDataStartFrame	OrigNumFrames
200.000000	200.000000	4	61	mm	200.000000	1119	1279
Frame#	Time	FHD			LBHD			RBHD			C7			T10			CLAV			LSHO			LUUPA			LMUPA			LDUPA			LLEP			LMEP			LRAD			LUL			LRFIN			RSHO			RUPA1			RMUPA			RDUPA			RLEP			RMEP			RUL			RUFIN			LASI			RASI			USACR			LSACR			RSACR			LTHI1			LTHI2			LTHI3			LTHI4			LLFC			LMFC			LTIB1			LTIB2			LTIB3			LTIB4			LLMAL			LMMAL			LHEE			LMT1			LMT2			LMT5			RTHI			RTHI2			RTHI3			RTHI4			RLFC			RMFC			RTIB1			RTIB2			RTIB3			RTIB4			RLMAL			RMMAL			RHEE			RMT1			RMT2			RMT5			RRAD			
		X1	Y1	Z1	X2	Y2	Z2	X3	Y3	Z3	X4	Y4	Z4	X5	Y5	Z5	X6	Y6	Z6	X7	Y7	Z7	X8	Y8	Z8	X9	Y9	Z9	X10	Y10	Z10	X11	Y11	Z11	X12	Y12	Z12	X13	Y13	Z13	X14	Y14	Z14	X15	Y15	Z15	X16	Y16	Z16	X17	Y17	Z17	X18	Y18	Z18	X19	Y19	Z19	X20	Y20	Z20	X21	Y21	Z21	X22	Y22	Z22	X23	Y23	Z23	X24	Y24	Z24	X25	Y25	Z25	X26	Y26	Z26	X27	Y27	Z27	X28	Y28	Z28	X29	Y29	Z29	X30	Y30	Z30	X31	Y31	Z31	X32	Y32	Z32	X33	Y33	Z33	X34	Y34	Z34	X35	Y35	Z35	X36	Y36	Z36	X37	Y37	Z37	X38	Y38	Z38	X39	Y39	Z39	X40	Y40	Z40	X41	Y41	Z41	X42	Y42	Z42	X43	Y43	Z43	X44	Y44	Z44	X45	Y45	Z45	X46	Y46	Z46	X47	Y47	Z47	X48	Y48	Z48	X49	Y49	Z49	X50	Y50	Z50	X51	Y51	Z51	X52	Y52	Z52	X53	Y53	Z53	X54	Y54	Z54	X55	Y55	Z55	X56	Y56	Z56	X57	Y57	Z57	X58	Y58	Z58	X59	Y59	Z59	X60	Y60	Z60	X61	Y61	Z61	

1120	5.595	-136.5634155273438	1644.483642578125	-794.767517089844	-271.9239196777344	1672.021240234375	-815.9332275390627	-297.2105712890626	1666.10595703125	-681.4782714843751	-372.5662841796876	1556.748901367188	-745.6157226562501	-434.6690368652345	1217.464721679688	-748.1779174804689	-257.2142944335938	1461.552856445313	-749.2775268554689	-286.2632446289063	1506.153198242188	-898.5821533203127	-217.1787414550782	1411.903198242188	-992.9432373046877	-171.9618072509766	1426.56396484375	-974.7332153320315	-159.7929077148438	1375.645629882813	-1006.207946777344	-61.64347457885744	1334.659301757813	-1015.293579101563	-71.72277069091798	1280.453002929688	-969.6392822265627	197.4499969482422	1328.96240234375	-901.7359008789065	202.0076904296876	1324.934326171875	-975.8538818359377	279.4153442382813	1331.982055664063	-893.0645141601565	-271.7481079101563	1490.007446289063	-596.1525878906251	-201.1650390625001	1361.538452148438	-501.9089965820314	-157.1739044189453	1376.333740234375	-514.4475708007814	-145.1486053466797	1321.110595703125	-494.9031982421876	-58.93072891235353	1286.2861328125	-491.9221496582032	-71.35157012939455	1235.998657226563	-558.0970458984376	203.933090209961	1289.613037109375	-539.5407104492189	282.1775207519532	1298.66943359375	-621.9321899414064	-287.9729919433594	1065.832641601563	-902.9868164062502	-259.7603149414063	1031.795166015625	-651.5522460937501	-453.7102355957032	1114.82421875	-747.7472534179689	-471.1544799804689	1089.632568359375	-776.9018554687502	-466.8777465820314	1081.9169921875	-721.5053710937501	-319.3135986328126	743.7978515625001	-960.1612548828127	-283.1991271972657	668.1615600585939	-944.813659667969	-242.5499572753907	672.3128662109376	-916.3846435546877	-310.8883056640626	616.4038085937501	-937.3550415039065	-312.3395996093751	555.9512329101564	-938.9289550781252	-315.6104125976563	547.8313598632814	-801.9822998046877	-279.2529602050782	355.3668518066407	-890.8579711914065	-340.5809936523438	319.9830322265626	-942.283386230469	-300.6013183593751	309.6711730957032	-922.497741699219	-306.6440734863282	231.3807830810547	-889.3988037109377	-379.7854309082032	122.6007919311524	-913.8029785156252	-366.5787963867188	143.1570281982422	-829.6129150390627	-442.2376403808595	101.9274063110352	-872.3240966796877	-225.3085937500001	55.39138031005861	-831.3354492187502	-223.4282989501954	55.75814056396486	-870.7792968750002	-261.4302978515626	39.97523880004884	-924.9002685546877	-369.6458740234376	803.8442382812502	-593.5366210937501	-338.8044738769532	745.1267089843751	-592.9568481445314	-304.8841857910157	744.3851928710939	-596.9357299804689	-371.7712707519532	671.4611816406251	-618.7360839843751	-363.6850585937501	520.6807250976564	-642.9710693359376	-354.1704101562501	515.2619628906251	-773.7930908203127	-309.7890014648438	366.0859680175782	-735.7427978515626	-336.2486877441407	279.1295471191407	-675.9800415039064	-308.4486083984376	281.5547790527344	-715.0991821289064	-320.2732849121094	237.9485168457032	-752.1383056640626	-366.5587158203126	99.0351486206055	-714.3678588867189	-355.9250488281251	131.2368469238282	-797.5544433593752	-433.2283630371095	83.17160034179689	-773.6791992187502	-208.9320220947266	56.90454483032228	-786.8304443359377	-208.8363647460938	51.01345062255861	-747.4008789062501	-251.9568939208985	32.52022933959962	-699.2641601562501	194.4985656738282	1285.707763671875	-616.2530517578126	
1121	5.600000000000001	-136.8495788574219	1644.565063476563	-795.318542480469	-272.2677917480469	1672.085571289063	-816.6954345703127	-297.5605163574219	1666.226806640625	-681.9415893554689	-372.9080810546876	1556.787353515625	-746.2199707031251	-434.7029113769532	1217.439331054688	-748.5761108398439	-257.5050659179688	1461.603759765625	-749.8727416992189	-286.4154663085938	1506.094360351563	-899.2799072265627	-217.3864440917969	1411.6025390625	-993.3926391601565	-172.2271423339844	1426.303833007813	-975.3040771484377	-160.0356597900391	1375.3642578125	-1006.675720214844	-61.76679992675783	1334.330200195313	-1015.626098632813	-71.91687011718751	1280.170288085938	-970.334899902344	197.2760467529297	1328.7919921875	-901.9873046875002	201.8418426513672	1324.643676757813	-976.175964355469	279.1582946777344	1331.775756835938	-893.3176879882815	-272.1643981933594	1490.189697265625	-596.7323608398439	-201.6658782958985	1361.6201171875	-502.1624755859376	-157.6689758300782	1376.419921875	-514.8166503906251	-145.65185546875	1321.226440429688	-495.1892700195314	-59.47615432739259	1286.3623046875	-492.2052612304689	-71.87586975097658	1236.031127929688	-558.3840942382814	203.3734741210938	1289.514282226563	-539.6898803710939	281.6503601074219	1298.6357421875	-622.1416625976564	-287.8596801757813	1065.74951171875	-903.3328857421877	-259.7821350097657	1031.910400390625	-651.6976318359376	-453.7711181640626	1114.780151367188	-748.0180664062501	-471.0166931152345	1089.55029296875	-777.2652587890627	-466.8760375976564	1081.887939453125	-721.7705078125001	-320.4583740234376	743.7825317382814	-960.4324951171877	-284.2584838867188	668.0515747070314	-945.2490234375002	-243.5339660644532	672.1806030273439	-916.835876464844	-312.1839904785157	616.3720092773439	-937.635437011719	-313.6360778808594	555.9025878906251	-939.1601562500002	-316.5739440917969	547.8646240234376	-802.224060058594	-279.7848815917969	355.3238830566407	-891.1130981445315	-341.2376708984376	319.8656311035157	-942.4453735351565	-301.1342468261719	309.6113586425782	-922.8701171875002	-306.9111328125001	231.3608703613282	-889.5444946289065	-379.9082641601563	122.4375991821289	-913.8770141601565	-366.6265869140626	143.0191040039063	-829.686950683594	-442.2302856445314	101.8115921020508	-872.4309692382815	-225.3420104980469	55.30651473999025	-831.4573364257815	-223.4408721923829	55.62423324584962	-870.8015136718752	-261.4658203125001	39.86883544921876	-924.9930419921877	-369.6211547851563	803.9229736328127	-593.6232910156251	-338.7821960449219	745.1885375976564	-593.1276855468751	-304.8908081054688	744.4078979492189	-597.0520019531251	-371.8561706542969	671.5172119140626	-618.8082885742189	-363.8173522949219	520.7701416015626	-643.1035766601564	-354.2599792480469	515.3155517578126	-773.8903808593752	-309.8607177734376	366.1260070800782	-735.7817993164064	-336.3204345703126	279.1731262207032	-675.9389648437501	-308.5950012207032	281.5003356933594	-715.3699951171876	-320.3177185058594	238.0152893066407	-752.1713867187501	-366.5537719726563	99.04860687255862	-714.3703002929689	-355.9435729980469	131.2718200683594	-797.570251464844	-433.242889404297	83.1886444091797	-773.6875610351565	-208.9473266601563	56.89503860473634	-786.8391723632815	-208.8484954833985	51.02944564819337	-747.4413452148439	-251.9544372558594	32.53556060791016	-699.2637939453126	193.7631225585938	1285.248413085938	-616.4091796875001	
1122	5.605	-137.3706817626953	1644.64794921875	-796.034362792969	-272.6415405273438	1672.126342773438	-817.3557128906252	-298.0650634765626	1666.359375	-682.7288818359376	-373.2602539062501	1556.87060546875	-746.7825927734376	-434.7891235351564	1217.471557617188	-748.9758911132814	-257.6447753906251	1461.848999023438	-750.1804199218751	-286.5613403320313	1506.004150390625	-899.889831542969	-217.5434265136719	1411.32666015625	-993.8870849609377	-172.5095825195313	1426.072509765625	-975.7915039062502	-160.2783660888672	1375.079345703125	-1007.110717773438	-61.78356170654298	1334.0693359375	-1015.966857910156	-72.09127044677736	1279.624633789063	-969.9771118164065	197.0337219238282	1328.606201171875	-902.300720214844	201.6427612304688	1324.356567382813	-976.4428710937502	278.8928527832032	1331.550415039063	-893.7463378906252	-272.4680786132813	1490.40185546875	-597.0951538085939	-202.1749572753907	1361.704223632813	-502.4593200683595	-158.1891784667969	1376.572387695313	-515.1821289062501	-146.1439208984375	1321.368408203125	-495.4747009277345	-60.13069915771486	1286.4287109375	-492.3817138671876	-72.4249954223633	1236.1259765625	-558.5545654296876	202.8236236572266	1289.4921875	-539.8864135742189	281.0460510253907	1298.540405273438	-622.2368164062501	-287.8156433105469	1065.671752929688	-903.6262207031252	-259.7812805175782	1032.016235351563	-651.8656616210939	-453.7187500000001	1114.774291992188	-748.2932739257814	-470.951873779297	1089.53173828125	-777.5684204101565	-466.8362426757814	1081.851196289063	-722.0478515625001	-321.4869384765626	743.8179321289064	-960.7822265625002	-285.5184936523438	667.9196777343751	-945.7590332031252	-244.6016693115235	672.1180419921876	-917.4481201171877	-313.4406127929688	616.3752441406251	-937.9334716796877	-314.7545471191407	555.9216308593751	-939.3990478515627	-317.4960021972657	547.8818969726564	-802.442810058594	-280.3574218750001	355.3648071289063	-891.3467407226565	-341.7809143066407	319.7405700683594	-942.6773071289065	-301.5591735839844	309.6241760253907	-923.0323486328127	-307.1689758300782	231.3464660644532	-889.7744140625002	-379.9346618652344	122.2710266113282	-913.9769287109377	-366.6719970703126	142.9375152587891	-829.815124511719	-442.1555175781251	101.7248611450196	-872.5440673828127	-225.2823333740235	55.25057601928712	-831.5063476562502	-223.3773803710938	55.4462013244629	-870.877624511719	-261.4552001953126	39.72258758544923	-925.0628051757815	-369.6299438476563	803.971374511719	-593.7376098632814	-338.7606506347657	745.2498779296876	-593.3098754882814	-304.8852844238282	744.4848022460939	-597.1861572265626	-371.9948730468751	671.5700683593751	-618.9378051757814	-363.9370117187501	520.8095092773439	-643.2541503906251	-354.5490722656251	515.4493408203126	-774.0535888671877	-309.9103088378907	366.1741027832032	-735.8857421875001	-336.3651123046876	279.2560424804688	-676.0343627929689	-308.6975708007813	281.5860595703126	-715.4283447265626	-320.3826293945313	238.0604705810547	-752.2313842773439	-366.5678405761719	99.08571624755862	-714.3708496093751	-355.9102783203126	131.2767333984375	-797.5471191406252	-433.2175598144532	83.18301391601564	-773.7004394531252	-208.9535369873047	56.91366577148439	-786.8501586914065	-208.8315124511719	51.04444122314455	-747.3966064453126	-251.9544982910157	32.53690338134766	-699.2732543945314	193.2395935058594	1284.9140625	-616.5147094726564	
1123	5.61	-137.8401641845703	1644.732421875	-796.7139282226565	-272.9127502441407	1672.186767578125	-817.9952392578127	-298.4863586425782	1666.450561523438	-683.5183715820314	-373.5479431152344	1556.934814453125	-747.4854125976564	-434.916961669922	1217.537353515625	-749.3604736328126	-257.8998413085938	1461.889526367188	-750.5761108398439	-286.7456665039063	1505.901245117188	-900.4209594726565	-217.7057189941407	1411.073608398438	-994.4005126953127	-172.6304473876953	1425.876220703125	-976.2319946289065	-160.4201049804688	1374.808715820313	-1007.525268554688	-62.00648117065431	1333.8046875	-1016.419311523438	-72.34458160400392	1279.449462890625	-970.1965332031252	196.7700347900391	1328.437133789063	-902.5759887695315	201.4740447998047	1324.091430664063	-976.7651977539065	278.6273803710938	1331.328369140625	-894.115905761719	-272.7842102050782	1490.650146484375	-597.5439453125001	-202.7488861083985	1361.81494140625	-502.8089599609376	-158.7512969970703	1376.724487304688	-515.5277709960939	-146.7556610107422	1321.4853515625	-495.7799377441407	-60.71964645385744	1286.524047851563	-492.6165466308595	-72.94995880126955	1236.172119140625	-558.8211669921876	202.2824401855469	1289.420043945313	-540.0094604492189	280.5516967773438	1298.505615234375	-622.3495483398439	-287.6638488769532	1065.615112304688	-903.9487915039065	-259.8162231445313	1032.123046875	-652.0690307617189	-453.7007446289064	1114.780151367188	-748.5759277343751	-470.9098510742189	1089.524780273438	-777.881774902344	-466.8135375976564	1081.875732421875	-722.2922973632814	-322.5660705566407	743.8062744140626	-961.068542480469	-286.6204528808594	667.8999023437501	-946.204284667969	-245.6643829345704	672.0725708007814	-918.1567382812502	-314.5837097167969	616.4275512695314	-938.185974121094	-315.9259033203126	555.9769897460939	-939.6899414062502	-318.2659912109376	547.9241943359376	-802.6257934570315	-281.0855712890626	355.3110046386719	-891.6546630859377	-342.1917114257813	319.6489562988282	-942.896667480469	-302.0053100585938	309.6419372558594	-923.2603759765627	-307.4790649414063	231.3483581542969	-889.9840087890627	-379.9830932617188	122.1112747192383	-914.0515136718752	-366.7643737792969	142.8453369140625	-829.9597167968752	-442.1531066894532	101.6423645019532	-872.6302490234377	-225.2581024169922	55.19521331787111	-831.643981933594	-223.3739318847657	55.31491088867189	-870.9050292968752	-261.5207214355469	39.58431243896485	-925.1958007812502	-369.5937194824219	804.0524902343752	-593.8996582031251	-338.7846679687501	745.3094482421876	-593.4978637695314	-304.9185180664063	744.4866943359376	-597.3191528320314	-372.0791931152344	671.6179809570314	-619.0518188476564	-364.0295715332032	520.9128417968751	-643.4464721679689	-354.6542358398438	515.4828491210939	-774.186950683594	-309.9766235351563	366.2111816406251	-735.9763183593751	-336.3998107910157	279.3223571777344	-676.1091918945314	-308.7341003417969	281.6469116210938	-715.4825439453126	-320.4228515625001	238.147933959961	-752.3212280273439	-366.5327758789063	99.10427093505862	-714.3875732421876	-355.8697509765626	131.3129119873047	-797.5347900390627	-433.2166748046876	83.24084472656251	-773.7081298828127	-208.9320068359376	56.89257812500001	-786.943054199219	-208.8278961181641	51.06035232543947	-747.3757324218751	-251.9561767578126	32.55405044555665	-699.2743530273439	192.7422332763672	1285.357788085938	-616.6007690429689	
